# xmcd CD database file generated by OrangeCD 5.1
#
# Track frame offsets:
#	150
#	14255
#	27072
#	40000
#	53402
#	66212
#	74957
#	94027
#	105972
#	117342
#	124670
#	140687
#	158187
#	170809
#
# Disc length: 2434 seconds
#
# Revision: 2
# Processed by: cddbd v1.4PL0 Copyright (c) Steve Scherf et al.
# Submitted via: OrangeCD 5.1
#
DISCID=bc09800e
DTITLE=Rex Hobart and The Misery Boys - Forever Always Ends
DYEAR=1999
DGENRE=Country
TTITLE0=I Always Cry At Weddings
TTITLE1=I'll Never Sleep It Off
TTITLE2=I Walked In While He Was Changing Your Mind
TTITLE3=Point Of No Return
TTITLE4=Happy Birthday Broken Heart
TTITLE5=Between A Rock And A Heartache
TTITLE6=Mother Of A Member Of The Band
TTITLE7=Nothin' But Nothin'
TTITLE8=If You Had Just Believed In Me
TTITLE9=Wait Outside (While I Change)
TTITLE10=Make Me Hate You Before You Go
TTITLE11=Cupid's Little Arrow
TTITLE12=Feeling Sorry For Myself
TTITLE13=Losing Combination
EXTD=
EXTT0=
EXTT1=
EXTT2=
EXTT3=
EXTT4=
EXTT5=
EXTT6=
EXTT7=
EXTT8=
EXTT9=
EXTT10=
EXTT11=
EXTT12=
EXTT13=
PLAYORDER=
